# xmcd
#
# Track frame offsets:
#	150
#	21447
#	45557
#	75070
#	96055
#	121245
#	143885
#	170542
#	193587
#	215457
#	243550
#	275877
#	294260
#	325060
#
# Disc length: 4566 seconds
#
# Revision: 1
# Processed by: cddbd v1.5.1PL0 Copyright (c) Steve Scherf et al.
# Submitted via: CDex 1.50Beta5
#
DISCID=c311d40e
DTITLE=北島三郎 - 風雪月花・花の巻
DYEAR=1996
DGENRE=World
TTITLE0=石狩川よ
TTITLE1=魂
TTITLE2=夫婦絶唱
TTITLE3=箱根のおんな
TTITLE4=あじさい情話
TTITLE5=夫婦花
TTITLE6=男の涙
TTITLE7=花虎の道
TTITLE8=花の生涯
TTITLE9=三郎太鼓
TTITLE10=がまん坂
TTITLE11=男の情炎
TTITLE12=裸一貫
TTITLE13=風雪月花
EXTD=
EXTT0=
EXTT1=
EXTT2=
EXTT3=
EXTT4=
EXTT5=
EXTT6=
EXTT7=
EXTT8=
EXTT9=
EXTT10=
EXTT11=
EXTT12=
EXTT13=
PLAYORDER=
